<svg height="512" viewBox="0 0 64 64" width="512" xmlns="http://www.w3.org/2000/svg" xmlns:xlink="http://www.w3.org/1999/xlink"><linearGradient id="New_Gradient_Swatch" gradientUnits="userSpaceOnUse" x1="20" x2="20" y1="64.286" y2="-.059"><stop offset="0" stop-color="#e93e3a"/><stop offset=".35" stop-color="#ed683c"/><stop offset=".7" stop-color="#f3903f"/><stop offset="1" stop-color="#fdc70c"/></linearGradient><linearGradient id="New_Gradient_Swatch-2" x1="36" x2="36" xlink:href="#New_Gradient_Swatch" y1="64.286" y2="-.059"/><linearGradient id="New_Gradient_Swatch-3" x1="37" x2="37" xlink:href="#New_Gradient_Swatch" y1="64.286" y2="-.059"/><linearGradient id="New_Gradient_Swatch-4" x1="13" x2="13" xlink:href="#New_Gradient_Swatch" y1="64.286" y2="-.059"/><linearGradient id="New_Gradient_Swatch-5" x1="32" x2="32" xlink:href="#New_Gradient_Swatch" y1="64.286" y2="-.059"/><linearGradient id="New_Gradient_Swatch-6" x1="31" x2="31" xlink:href="#New_Gradient_Swatch" y1="64.286" y2="-.059"/><linearGradient id="New_Gradient_Swatch-8" x1="48" x2="48" xlink:href="#New_Gradient_Swatch" y1="64.286" y2="-.059"/><linearGradient id="New_Gradient_Swatch-9" x1="44" x2="44" xlink:href="#New_Gradient_Swatch" y1="64.286" y2="-.059"/><linearGradient id="New_Gradient_Swatch-10" x1="51" x2="51" xlink:href="#New_Gradient_Swatch" y1="64.286" y2="-.059"/><linearGradient id="New_Gradient_Swatch-11" x1="40" x2="40" xlink:href="#New_Gradient_Swatch" y1="64.286" y2="-.059"/><linearGradient id="New_Gradient_Swatch-12" x1="50" x2="50" xlink:href="#New_Gradient_Swatch" y1="64.286" y2="-.059"/><linearGradient id="New_Gradient_Swatch-13" x1="42" x2="42" xlink:href="#New_Gradient_Swatch" y1="64.286" y2="-.059"/><path d="m18 45h4v2h-4z" fill="url(#New_Gradient_Swatch)"/><path d="m34 45h4v2h-4z" fill="url(#New_Gradient_Swatch-2)"/><path d="m36 55h2v2h-2z" fill="url(#New_Gradient_Swatch-3)"/><path d="m12 55h2v2h-2z" fill="url(#New_Gradient_Swatch-4)"/><path d="m59 2h-38a3 3 0 0 0 -3 3v29.149l-5.48 6.851h-8.52a2 2 0 0 0 -2 2v12a2 2 0 0 0 2 2h3.09a5.991 5.991 0 0 0 10.937 2.265 2.994 2.994 0 0 0 2.973 2.735h38a3 3 0 0 0 3-3v-54a3 3 0 0 0 -3-3zm-7 2h4v6l-1.2-1.6a1.036 1.036 0 0 0 -1.6 0l-1.2 1.6zm-9.09 51a5.993 5.993 0 0 0 -11.82 0h-5.09v-12h12a1 1 0 0 0 .832-1.555l-4-6a1 1 0 0 0 -.832-.445h-14.12l1.3-1.624a1 1 0 0 1 .781-.376h13a1 1 0 0 1 .818.426l6.1 8.721a2 2 0 0 0 1.642.853h2.479v12zm-9.91 1a4 4 0 1 1 4 4 4 4 0 0 1 -4-4zm.465-19 2.667 4h-10.132v-4zm-15.185 0h5.72v4h-8.92zm-14.28 10h2v2h-2zm9 13a4 4 0 1 1 4-4 4 4 0 0 1 -4 4zm0-10a6.006 6.006 0 0 0 -5.91 5h-3.09v-4h3a1 1 0 0 0 1-1v-4a1 1 0 0 0 -1-1h-3v-2h20v12h-5.09a6.006 6.006 0 0 0 -5.91-5zm7 9v-2h11.09a5.979 5.979 0 0 0 1.45 3h-11.54a1 1 0 0 1 -1-1zm40 0a1 1 0 0 1 -1 1h-17.54a5.979 5.979 0 0 0 1.45-3h3.09a2 2 0 0 0 2-2v-12a2 2 0 0 0 -2-2h-2.479l-6.105-8.72a3 3 0 0 0 -2.457-1.28h-13a2.973 2.973 0 0 0 -1.959.746v-26.746a1 1 0 0 1 1-1h29v9a1 1 0 0 0 1.8.6l2.2-2.933 2.2 2.933a1 1 0 0 0 .8.4 1.019 1.019 0 0 0 .316-.051 1 1 0 0 0 .684-.949v-9h1a1 1 0 0 1 1 1z" fill="url(#New_Gradient_Swatch-5)"/><path d="m30.445 23.832a1 1 0 0 0 1.11 0l4.218-2.812a4.987 4.987 0 0 0 2.227-4.161v-7.859a1 1 0 0 0 -1-1h-12a1 1 0 0 0 -1 1v7.859a4.992 4.992 0 0 0 2.227 4.161zm-4.445-13.832h10v6.859a2.991 2.991 0 0 1 -1.336 2.5l-3.664 2.441-3.664-2.443a2.993 2.993 0 0 1 -1.336-2.498z" fill="url(#New_Gradient_Swatch-6)"/><path d="m30 18a1 1 0 0 0 .707-.293l4-4-1.414-1.414-3.293 3.293-1.293-1.293-1.414 1.414 2 2a1 1 0 0 0 .707.293z" fill="url(#New_Gradient_Swatch-6)"/><path d="m42 22h12v2h-12z" fill="url(#New_Gradient_Swatch-8)"/><path d="m42 18h4v2h-4z" fill="url(#New_Gradient_Swatch-9)"/><path d="m48 18h6v2h-6z" fill="url(#New_Gradient_Swatch-10)"/><path d="m26 26h28v2h-28z" fill="url(#New_Gradient_Swatch-11)"/><path d="m46 30h8v2h-8z" fill="url(#New_Gradient_Swatch-12)"/><path d="m40 30h4v2h-4z" fill="url(#New_Gradient_Swatch-13)"/><path d="m42 34h12v2h-12z" fill="url(#New_Gradient_Swatch-8)"/></svg>