<svg height="512" viewBox="0 0 64 64" width="512" xmlns="http://www.w3.org/2000/svg" xmlns:xlink="http://www.w3.org/1999/xlink"><linearGradient id="New_Gradient_Swatch" gradientUnits="userSpaceOnUse" x1="16" x2="16" y1="56.698" y2="5.972"><stop offset="0" stop-color="#e93e3a"/><stop offset=".35" stop-color="#ed683c"/><stop offset=".7" stop-color="#f3903f"/><stop offset="1" stop-color="#fdc70c"/></linearGradient><linearGradient id="New_Gradient_Swatch-2" x1="22" x2="22" xlink:href="#New_Gradient_Swatch" y1="56.698" y2="5.972"/><linearGradient id="New_Gradient_Swatch-3" x1="32" x2="32" xlink:href="#New_Gradient_Swatch" y1="56.698" y2="5.972"/><linearGradient id="New_Gradient_Swatch-4" x1="19" x2="19" xlink:href="#New_Gradient_Swatch" y1="56.698" y2="5.972"/><linearGradient id="New_Gradient_Swatch-5" x1="36" x2="36" xlink:href="#New_Gradient_Swatch" y1="56.698" y2="5.972"/><linearGradient id="New_Gradient_Swatch-6" x1="43" x2="43" xlink:href="#New_Gradient_Swatch" y1="56.698" y2="5.972"/><linearGradient id="New_Gradient_Swatch-7" x1="47" x2="47" xlink:href="#New_Gradient_Swatch" y1="56.698" y2="5.972"/><linearGradient id="New_Gradient_Swatch-8" x1="51" x2="51" xlink:href="#New_Gradient_Swatch" y1="56.698" y2="5.972"/><linearGradient id="New_Gradient_Swatch-9" x1="55" x2="55" xlink:href="#New_Gradient_Swatch" y1="56.698" y2="5.972"/><linearGradient id="New_Gradient_Swatch-10" x1="37" x2="37" xlink:href="#New_Gradient_Swatch" y1="56.698" y2="5.972"/><linearGradient id="New_Gradient_Swatch-11" x1="44" x2="44" xlink:href="#New_Gradient_Swatch" y1="56.698" y2="5.972"/><linearGradient id="New_Gradient_Swatch-12" x1="52" x2="52" xlink:href="#New_Gradient_Swatch" y1="56.698" y2="5.972"/><linearGradient id="New_Gradient_Swatch-13" x1="49" x2="49" xlink:href="#New_Gradient_Swatch" y1="56.698" y2="5.972"/><linearGradient id="New_Gradient_Swatch-19" x1="50" x2="50" xlink:href="#New_Gradient_Swatch" y1="56.698" y2="5.972"/><g id="Driver_License-Id-License-Transport-Identification" data-name="Driver License-Id-License-Transport-Identification"><path d="m15 29h2v2h-2z" fill="url(#New_Gradient_Swatch)"/><path d="m21 29h2v2h-2z" fill="url(#New_Gradient_Swatch-2)"/><path d="m58 7h-52a5 5 0 0 0 -5 5v38a5 5 0 0 0 5 5h52a5 5 0 0 0 5-5v-38a5 5 0 0 0 -5-5zm3 43a3.009 3.009 0 0 1 -3 3h-52a3.009 3.009 0 0 1 -3-3v-35h58zm0-37h-58v-1a3.009 3.009 0 0 1 3-3h52a3.009 3.009 0 0 1 3 3z" fill="url(#New_Gradient_Swatch-3)"/><path d="m27.85 41.51-4.85-2.16v-1.43a8.06 8.06 0 0 0 3.74-4.92h.26a3 3 0 0 0 0-6v-2a8 8 0 0 0 -16 0v2a3 3 0 0 0 0 6h.26a8.06 8.06 0 0 0 3.74 4.92v1.43l-4.85 2.16a7 7 0 0 0 -4.15 6.39v2.1a1 1 0 0 0 1 1h24a1 1 0 0 0 1-1v-2.1a7 7 0 0 0 -4.15-6.39zm-.85-12.51a1 1 0 0 1 0 2zm-16 2a1 1 0 0 1 0-2zm12.53 10.77-.24.94-1.58-.53-.37-.73.68-.34zm-10.53-16.77a6 6 0 0 1 12 0v.97a2.009 2.009 0 0 1 -1.6-1.48l-.43-1.73a1 1 0 0 0 -1.97.24 3.009 3.009 0 0 1 -3 3h-5zm0 6v-3h5a5.012 5.012 0 0 0 3.93-1.91 3.99 3.99 0 0 0 3.07 1.89v3.02a6 6 0 0 1 -12 0zm2.98 10.11.68.34-.37.73-1.58.53-.24-.94zm-.73 7.89h-7.25v-1.1a5 5 0 0 1 2.97-4.57l1.65-.73.41 1.64a1.017 1.017 0 0 0 .49.64 1 1 0 0 0 .48.12 1.185 1.185 0 0 0 .32-.05l2.36-.79zm2.09 0 .96-3.29a.99.99 0 0 0 1.4 0l.96 3.29zm.88-6.2.4-.8h.76l.4.8-.78.79zm2.78-3.42-1.24.62h-1.52l-1.24-.62v-.64a7.822 7.822 0 0 0 4 0zm9 9.62h-7.25l-1.43-4.84 2.36.79a1.185 1.185 0 0 0 .32.05 1 1 0 0 0 .48-.12 1.017 1.017 0 0 0 .49-.64l.41-1.64 1.65.73a5 5 0 0 1 2.97 4.57z" fill="url(#New_Gradient_Swatch-4)"/><path d="m34 18h4v2h-4z" fill="url(#New_Gradient_Swatch-5)"/><path d="m42 18h2v2h-2z" fill="url(#New_Gradient_Swatch-6)"/><path d="m46 18h2v2h-2z" fill="url(#New_Gradient_Swatch-7)"/><path d="m50 18h2v2h-2z" fill="url(#New_Gradient_Swatch-8)"/><path d="m54 18h2v2h-2z" fill="url(#New_Gradient_Swatch-9)"/><path d="m34 31h6v2h-6z" fill="url(#New_Gradient_Swatch-10)"/><path d="m42 27h4v2h-4z" fill="url(#New_Gradient_Swatch-11)"/><path d="m48 27h8v2h-8z" fill="url(#New_Gradient_Swatch-12)"/><path d="m42 31h14v2h-14z" fill="url(#New_Gradient_Swatch-13)"/><path d="m42 37h2v2h-2z" fill="url(#New_Gradient_Swatch-6)"/><path d="m46 37h2v2h-2z" fill="url(#New_Gradient_Swatch-7)"/><path d="m50 37h2v2h-2z" fill="url(#New_Gradient_Swatch-8)"/><path d="m54 37h2v2h-2z" fill="url(#New_Gradient_Swatch-9)"/><path d="m42 48h4v2h-4z" fill="url(#New_Gradient_Swatch-11)"/><path d="m48 48h4v2h-4z" fill="url(#New_Gradient_Swatch-19)"/><path d="m54 48h2v2h-2z" fill="url(#New_Gradient_Swatch-9)"/></g></svg>